<?xml version="1.0" encoding="UTF-8"?>
<svg version="1.1" xmlns="http://www.w3.org/2000/svg" width="1983" height="381">
<path d="M0 0 C178.16458937 0 178.16458937 0 194.75 4.1875 C195.61214111 4.39963135 196.47428223 4.6117627 197.36254883 4.83032227 C220.08557993 10.72583463 240.38816174 23.53439564 252.75 43.875 C264.45841889 65.05659417 265.87560295 90.75098346 260 114 C254.38653119 133.17593724 242.36713055 148.23445695 225 158 C223.66902961 158.67137177 222.33607675 159.33884862 221 160 C221.76908691 160.38369751 221.76908691 160.38369751 222.55371094 160.77514648 C246.94949985 173.03586037 267.39911112 188.80055066 276.8203125 215.32421875 C285.41199177 242.09498097 283.63543774 273.03770808 271.25 298.375 C267.57916636 305.50918158 263.16443386 311.8482479 258 318 C257.484375 318.6290625 256.96875 319.258125 256.4375 319.90625 C240.04358581 338.00786359 214.23010358 346.86673547 190.9375 351.25 C189.64549683 351.49508301 189.64549683 351.49508301 188.32739258 351.74511719 C126.49015258 362.58584817 62.78029706 354 0 354 C0 237.18 0 120.36 0 0 Z M73 66 C73 91.74 73 117.48 73 144 C90.9128125 144.061875 90.9128125 144.061875 109.1875 144.125 C112.93246826 144.14320801 116.67743652 144.16141602 120.53588867 144.18017578 C123.94724092 144.18687222 123.94724092 144.18687222 127.3585968 144.19088745 C128.856371 144.19392161 130.3541409 144.20087696 131.85188293 144.21115112 C149.52618487 144.3261364 166.4797558 143.43605939 179.87109375 130.453125 C187.24501356 121.95620456 189.35115921 111.99927769 188.875 101 C187.75379615 89.48897381 183.70471815 81.72835956 175 74 C162.6671066 65.30666199 147.00109993 65.56602175 132.5703125 65.70703125 C131.03572926 65.71145647 129.50114144 65.71450812 127.96655273 65.71618652 C122.35263159 65.73174881 116.73880815 65.77363147 111.125 65.8125 C92.253125 65.9053125 92.253125 65.9053125 73 66 Z M73 204 C73 231.72 73 259.44 73 288 C89.00974996 288.08740148 89.00974996 288.08740148 105.01953125 288.14648438 C111.55883173 288.1643486 118.098005 288.18537611 124.63720703 288.22631836 C129.91514344 288.25915321 135.19294323 288.27690344 140.47097397 288.28463173 C142.47458926 288.29013225 144.47819792 288.3008721 146.4817543 288.31719017 C163.38869427 288.4492883 180.20041462 287.92139662 193.875 276.625 C194.57625 275.75875 195.2775 274.8925 196 274 C196.48855469 273.44957031 196.97710938 272.89914062 197.48046875 272.33203125 C205.83174995 262.33111426 207.10419567 250.62725018 206.22753906 238.05908203 C205.21658802 228.91062595 200.70444493 221.15761831 193.8828125 215.12890625 C182.93775897 206.78554577 170.27777858 203.82925846 156.78173828 203.88647461 C155.87378006 203.88632858 154.96582184 203.88618256 154.03034973 203.8860321 C151.04364594 203.88672609 148.05700533 203.89449437 145.0703125 203.90234375 C142.99380528 203.90420976 140.91729761 203.9056328 138.84078979 203.90663147 C133.38609595 203.91044226 127.9314289 203.92026025 122.47674561 203.93133545 C115.92630568 203.94338306 109.37585678 203.94795866 102.82540894 203.95378876 C92.88358734 203.96347278 82.9418245 203.98263942 73 204 Z " fill="#3B5A64" transform="translate(362,22)"/>
<path d="M0 0 C1.52497494 1.28677435 3.04636018 2.57782736 4.5625 3.875 C5.59375 4.65875 6.625 5.4425 7.6875 6.25 C11.78929963 9.9951214 15.09273122 14.53778902 18.5625 18.875 C18.8925 7.985 19.2225 -2.905 19.5625 -14.125 C42.9925 -14.125 66.4225 -14.125 90.5625 -14.125 C90.5625 73.985 90.5625 162.095 90.5625 252.875 C66.8025 252.875 43.0425 252.875 18.5625 252.875 C18.2325 241.655 17.9025 230.435 17.5625 218.875 C15.2525 221.515 12.9425 224.155 10.5625 226.875 C-8.99336388 246.92594904 -37.69447247 257.32242484 -65.3125 258.125 C-67.02217163 258.07631588 -68.73081866 257.98718744 -70.4375 257.875 C-71.37601807 257.8133667 -71.37601807 257.8133667 -72.33349609 257.75048828 C-103.65664374 255.48781918 -129.19189468 241.40889184 -150.5625 218.625 C-167.52628885 198.81044996 -177.78752489 174.33942622 -182.4375 148.875 C-182.664375 147.66199219 -182.89125 146.44898438 -183.125 145.19921875 C-189.35789753 104.90180485 -181.82352777 62.49066167 -158.4375 28.875 C-155.88744103 25.43129205 -153.21682825 22.13478106 -150.4375 18.875 C-149.72400391 17.96234375 -149.72400391 17.96234375 -148.99609375 17.03125 C-144.55454043 11.46349086 -139.0529698 7.20825799 -133.4375 2.875 C-132.65503906 2.26527344 -131.87257813 1.65554687 -131.06640625 1.02734375 C-93.98818368 -26.42179573 -36.92816594 -29.27836703 0 0 Z M-94.4375 61.875 C-110.53357952 82.13651863 -114.85242724 105.21037643 -113.19921875 130.5234375 C-110.75812216 151.67960797 -101.63806611 169.88606567 -85.1875 183.625 C-77.37528767 189.40221296 -68.10042615 193.60483167 -58.4375 194.875 C-57.48746094 195.00777344 -56.53742188 195.14054688 -55.55859375 195.27734375 C-37.38174339 197.26230042 -19.87883752 193.3581492 -5.4375 181.875 C-4.426875 181.153125 -3.41625 180.43125 -2.375 179.6875 C10.21461462 168.66269623 16.81006935 151.99323391 19.5625 135.875 C19.75779297 134.79992187 19.75779297 134.79992187 19.95703125 133.703125 C23.37867793 110.16219581 19.121126 84.9853951 4.84375 65.7109375 C-5.52555813 52.820325 -19.03393261 44.54928816 -35.4375 41.875 C-58.34881378 39.95097227 -78.29151105 44.40556933 -94.4375 61.875 Z " fill="#3B5A64" transform="translate(1547.4375,123.125)"/>
<path d="M0 0 C23.76 0 47.52 0 72 0 C72.03738281 11.67632812 72.07476563 23.35265625 72.11328125 35.3828125 C72.14356762 42.79298049 72.17459927 50.20313302 72.20898438 57.61328125 C72.26338842 69.36733578 72.31480495 81.12134745 72.34643555 92.87548828 C72.36949014 101.43751211 72.4029708 109.99942261 72.44870156 118.56135643 C72.47253362 123.09013703 72.49132776 127.61880609 72.49761391 132.14764786 C72.50371044 136.42078082 72.52387273 140.69362878 72.55427551 144.96665573 C72.5629832 146.52493553 72.56679363 148.08325268 72.56500816 149.64155579 C72.55502221 162.39213327 73.59902058 174.90379916 79.6875 186.375 C80.03925293 187.04781006 80.39100586 187.72062012 80.75341797 188.41381836 C86.44727846 198.8830518 94.73723454 205.10090475 106 209 C121.97219346 212.86104677 138.71137832 211.29789843 152.875 202.6875 C164.88098596 194.43990964 172.25077107 183.40407249 175 169 C175.43274265 163.410376 175.43855264 157.84127134 175.43237305 152.23754883 C175.44140542 150.57091553 175.45173623 148.90428885 175.46325684 147.2376709 C175.49067981 142.74464603 175.50009123 138.25174772 175.50611091 133.75865006 C175.51553309 129.05142659 175.54173943 124.34429624 175.56611633 119.63713074 C175.60967967 110.73748308 175.63828895 101.8378536 175.66143972 92.93813199 C175.68854606 82.80016823 175.73245411 72.66229862 175.77772844 62.52440226 C175.87042908 41.68297233 175.93995892 20.84155138 176 0 C199.76 0 223.52 0 248 0 C248 88.11 248 176.22 248 267 C225.56 267 203.12 267 180 267 C179.40626498 262.84385483 178.87527231 259.09494442 178.71875 254.96875 C178.68136719 254.07542969 178.64398437 253.18210937 178.60546875 252.26171875 C178.53515625 250.42057292 178.46484375 248.57942708 178.39453125 246.73828125 C178.18605712 241.75646833 177.81115297 236.92099467 177 232 C176.29875 232.78503906 175.5975 233.57007813 174.875 234.37890625 C153.90437022 257.68992518 128.65002862 270.1213096 97.140625 272.1875 C73.98957894 272.74873748 50.64433003 266.36051278 33 251 C32.12021484 250.33291016 32.12021484 250.33291016 31.22265625 249.65234375 C13.01779593 235.49300795 3.93494802 208.99696794 1 187 C-0.16963281 177.54263135 -0.13534437 168.10489603 -0.11352539 158.5949707 C-0.11324284 156.8593801 -0.11340258 155.12378938 -0.1139679 153.38819885 C-0.11425322 148.70717072 -0.10839949 144.02616855 -0.10139394 139.34514642 C-0.09511612 134.44178415 -0.09455311 129.53842121 -0.09336853 124.63505554 C-0.09026822 115.36351594 -0.08207245 106.09198821 -0.07201904 96.82045382 C-0.06081741 86.2593372 -0.05533727 75.69822 -0.05032361 65.13709891 C-0.03988868 43.42472452 -0.02155946 21.71236639 0 0 Z " fill="#3B5A64" transform="translate(700,109)"/>
<path d="M0 0 C77.88 0 155.76 0 236 0 C236 38.94 236 77.88 236 118 C158.12 118 80.24 118 0 118 C0 79.06 0 40.12 0 0 Z " fill="#3B5A64" transform="translate(1745,256)"/>
<path d="M0 0 C23.43 0 46.86 0 71 0 C71 123.42 71 246.84 71 374 C47.57 374 24.14 374 0 374 C0 250.58 0 127.16 0 0 Z " fill="#3B5A64" transform="translate(1242,2)"/>
<path d="M0 0 C-0.58372848 5.22888791 -1.42184198 10.21375386 -2.67407227 15.33398438 C-2.84002899 16.01790253 -3.00598572 16.70182068 -3.17697144 17.40646362 C-3.71922884 19.63661253 -4.26775186 21.8651671 -4.81640625 24.09375 C-5.19651152 25.65163822 -5.57622027 27.20962324 -5.95555115 28.7677002 C-6.94949284 32.84565867 -7.9487775 36.92228914 -8.94921875 40.99865723 C-9.97135858 45.16757984 -10.98838708 49.33774875 -12.00585938 53.5078125 C-13.9989343 61.67309636 -15.99766118 69.83698297 -18 78 C-23.66396621 77.10305239 -28.97807249 75.59021515 -34.46484375 73.9375 C-49.90744514 69.84222449 -66.11039928 71.60279242 -80.18359375 79.2109375 C-92.50742501 87.03939065 -100.4725543 98.23780989 -105 112 C-106.99682681 121.15737089 -107.30321423 130.26394384 -107.31884766 139.6027832 C-107.32817311 141.01355548 -107.33834554 142.42432236 -107.34928894 143.83508301 C-107.37630858 147.6213712 -107.39165387 151.40762281 -107.40471697 155.19398141 C-107.42047192 159.16713873 -107.44722188 163.14022263 -107.4727478 167.11332703 C-107.51931871 174.61750966 -107.55616693 182.12170644 -107.58942068 189.62595862 C-107.63498852 199.78020263 -107.69578132 209.93435515 -107.75566864 220.08852291 C-107.84946231 236.05896914 -107.92309198 252.02944284 -108 268 C-131.76 268 -155.52 268 -180 268 C-180 179.89 -180 91.78 -180 1 C-157.23 1 -134.46 1 -111 1 C-110.20586886 5.76478681 -109.7960205 10.22875332 -109.68359375 15.0234375 C-109.66281265 15.76961334 -109.64203156 16.51578918 -109.62062073 17.28457642 C-109.5556877 19.64796508 -109.49650429 22.01145664 -109.4375 24.375 C-109.39426116 25.98568735 -109.35064523 27.59636463 -109.30664062 29.20703125 C-109.20006474 33.13791771 -109.09864208 37.06890677 -109 41 C-108.38970947 40.23647217 -107.77941895 39.47294434 -107.15063477 38.6862793 C-84.24362408 10.07396932 -38.34615944 -22.10430243 0 0 Z " fill="#3B5A64" transform="translate(1200,108)"/>
<path d="M0 0 C38.94 0 77.88 0 118 0 C118 38.94 118 77.88 118 118 C79.06 118 40.12 118 0 118 C0 79.06 0 40.12 0 0 Z " fill="#3B5A64" transform="translate(1,256)"/>
<path d="M0 0 C38.94 0 77.88 0 118 0 C118 38.94 118 77.88 118 118 C98.715625 118.020625 79.43125 118.04125 59.5625 118.0625 C53.46338135 118.071604 47.3642627 118.08070801 41.08032227 118.09008789 C33.65808105 118.09460449 33.65808105 118.09460449 30.18833923 118.09544373 C27.75421466 118.09698381 25.32009086 118.10051003 22.88597107 118.10557556 C19.20855372 118.11284882 15.53118318 118.11390756 11.85375977 118.11352539 C10.76125947 118.1171235 9.66875917 118.12072161 8.54315281 118.12442875 C7.55938128 118.12305125 6.57560976 118.12167376 5.56202698 118.12025452 C4.70015054 118.12117631 3.8382741 118.1220981 2.95028019 118.12304783 C1 118 1 118 0 117 C-0.09578593 115.4818148 -0.12188147 113.95917604 -0.12025452 112.43797302 C-0.12163201 111.4542015 -0.12300951 110.47042997 -0.12442875 109.45684719 C-0.12083064 108.3643469 -0.11723253 107.2718466 -0.11352539 106.14624023 C-0.11364593 104.98639398 -0.11376646 103.82654772 -0.11389065 102.6315546 C-0.11314108 98.85721517 -0.10551083 95.08292441 -0.09765625 91.30859375 C-0.09618697 88.98636906 -0.09516617 86.66414404 -0.09460449 84.34191895 C-0.08935001 75.7071076 -0.07538896 67.07230333 -0.0625 58.4375 C-0.041875 39.153125 -0.02125 19.86875 0 0 Z " fill="#3C5B64" transform="translate(119,138)"/>
<path d="M0 0 C38.94 0 77.88 0 118 0 C118 38.94 118 77.88 118 118 C98.715625 118.020625 79.43125 118.04125 59.5625 118.0625 C53.46338135 118.071604 47.3642627 118.08070801 41.08032227 118.09008789 C33.65808105 118.09460449 33.65808105 118.09460449 30.18833923 118.09544373 C27.75421466 118.09698381 25.32009086 118.10051003 22.88597107 118.10557556 C19.20855372 118.11284882 15.53118318 118.11390756 11.85375977 118.11352539 C10.76125947 118.1171235 9.66875917 118.12072161 8.54315281 118.12442875 C7.55938128 118.12305125 6.57560976 118.12167376 5.56202698 118.12025452 C4.70015054 118.12117631 3.8382741 118.1220981 2.95028019 118.12304783 C1 118 1 118 0 117 C-0.09578593 115.4818148 -0.12188147 113.95917604 -0.12025452 112.43797302 C-0.12163201 111.4542015 -0.12300951 110.47042997 -0.12442875 109.45684719 C-0.12083064 108.3643469 -0.11723253 107.2718466 -0.11352539 106.14624023 C-0.11364593 104.98639398 -0.11376646 103.82654772 -0.11389065 102.6315546 C-0.11314108 98.85721517 -0.10551083 95.08292441 -0.09765625 91.30859375 C-0.09618697 88.98636906 -0.09516617 86.66414404 -0.09460449 84.34191895 C-0.08935001 75.7071076 -0.07538896 67.07230333 -0.0625 58.4375 C-0.041875 39.153125 -0.02125 19.86875 0 0 Z " fill="#3C5B64" transform="translate(1,20)"/>
</svg>
