<?xml version="1.0" encoding="UTF-8"?>
<svg xmlns="http://www.w3.org/2000/svg" viewBox="1 1 874 525">
<path d="M0 0 C115.5 0 231 0 350 0 C350 57.75 350 115.5 350 175 C234.5 175 119 175 0 175 C0 117.25 0 59.5 0 0 Z" fill="#3B5A64" transform="translate(525,351)"/>
<path d="M0 0 C57.75 0 115.5 0 175 0 C175 57.75 175 115.5 175 175 C117.25 175 59.5 175 0 175 C0 117.25 0 59.5 0 0 Z" fill="#3B5A64" transform="translate(1,351)"/>
<path d="M0 0 C57.75 0 115.5 0 175 0 C175 57.75 175 115.5 175 175 C117.25 175 59.5 175 0 175 C0 117.25 0 59.5 0 0 Z" fill="#3B5A64" transform="translate(1,1)"/>
<path d="M0 0 C57.42 0 114.84 0 174 0 C174 57.42 174 114.84 174 174 C116.58 174 59.16 174 0 174 C0 116.58 0 59.16 0 0 Z" fill="#3B5A64" transform="translate(176,176)"/>
</svg>
